<svg height="512pt" viewBox="-63 0 511 512" width="512pt" xmlns="http://www.w3.org/2000/svg"><path d="m262.070312 0h-240.960937c-11.382813 0-20.609375 9.226562-20.609375 20.605469v470.785156c0 11.378906 9.226562 20.605469 20.609375 20.605469h343.84375c11.378906 0 20.605469-9.226563 20.605469-20.605469v-375.605469c0-5.742187-2.398438-11.226562-6.613282-15.125l-102.882812-95.179687c-3.804688-3.523438-8.804688-5.480469-13.992188-5.480469zm0 0" fill="#d9e7ec"/><path d="m385.5625 115.785156v375.609375c0 11.375-9.230469 20.605469-20.605469 20.605469h-29.007812c11.386719 0 20.609375-9.230469 20.609375-20.605469v-411.445312l22.390625 20.710937c4.214843 3.902344 6.613281 9.386719 6.613281 15.125zm0 0" fill="#c5d3dd"/><path d="m378.402344 100.21875h-85.941406c-10.320313 0-18.679688-8.359375-18.679688-18.679688v-77.878906c.789062.539063 1.5625 1.148438 2.28125 1.820313l78.390625 72.519531zm0 0" fill="#8d9ca8"/><path d="m280.136719 210.027344c0 48.105468-39 87.105468-87.105469 87.105468s-87.101562-39-87.101562-87.105468c0-48.105469 38.996093-87.101563 87.101562-87.101563s87.105469 38.996094 87.105469 87.101563zm0 0" fill="#ea4444"/><path d="m280.136719 210.027344c0 48.109375-38.996094 87.105468-87.105469 87.105468-20.257812 0-38.910156-6.914062-53.699219-18.515624 9.097657 3.226562 18.886719 4.980468 29.089844 4.980468 48.097656 0 87.101563-39 87.101563-87.101562 0-27.847656-13.066407-52.644532-33.40625-68.589844 33.8125 11.964844 58.019531 44.214844 58.019531 82.121094zm0 0" fill="#d93131"/><path d="m231.339844 202.121094-49.230469-28.421875c-6.085937-3.511719-13.691406.878906-13.691406 7.90625v56.84375c0 7.027343 7.605469 11.417969 13.691406 7.90625l49.230469-28.421875c6.082031-3.511719 6.082031-12.296875 0-15.8125zm0 0" fill="#d9e7ec"/><path d="m231.335938 217.933594-49.222657 28.421875c-6.082031 3.515625-13.691406-.878907-13.691406-7.90625v-7.390625l56.519531-32.625 6.390625 3.6875c6.085938 3.515625 6.085938 12.300781.003907 15.8125zm0 0" fill="#c5d3dd"/><path d="m385.5625 350.492188v140.898437c0 11.386719-9.222656 20.609375-20.609375 20.609375h-343.84375c-11.375 0-20.609375-9.222656-20.609375-20.609375v-140.898437zm0 0" fill="#ea4444"/><path d="m385.5625 350.496094v140.894531c0 11.386719-9.222656 20.609375-20.609375 20.609375h-28.996094c11.386719 0 20.609375-9.222656 20.609375-20.609375v-140.894531zm0 0" fill="#d93131"/><g fill="#d9e7ec"><path d="m135.738281 441.410156c-1.347656 2.203125-3.0625 2.9375-4.773437 2.9375-1.59375 0-3.308594-.734375-4.410156-2.9375l-16.40625-31.097656v59.503906c0 2.816406-3.183594 4.285156-6.488282 4.285156-3.183594 0-6.488281-1.46875-6.488281-4.285156v-78.722656c0-4.777344 3.183594-6.488281 6.488281-6.488281 4.652344 0 7.226563 1.589843 10.285156 7.34375l17.140626 32.445312 17.386718-32.445312c3.058594-5.753907 5.507813-7.34375 10.160156-7.34375 3.429688 0 6.488282 1.710937 6.488282 6.488281v78.722656c0 2.816406-3.183594 4.285156-6.488282 4.285156-3.183593 0-6.488281-1.46875-6.488281-4.285156v-58.765625zm0 0"/><path d="m181.28125 388.765625c0-2.203125 1.960938-4.160156 5.019531-4.160156h23.875c15.058594 0 26.8125 7.222656 26.8125 26.933593v.980469c0 19.585938-12.121093 27.054688-27.546875 27.054688h-15.179687v30.242187c0 2.816406-3.1875 4.285156-6.492188 4.285156-3.179687 0-6.488281-1.46875-6.488281-4.285156zm12.980469 7.347656v33.175781h15.179687c9.0625 0 14.570313-5.140624 14.570313-15.914062v-1.46875c0-10.773438-5.507813-15.792969-14.570313-15.792969zm0 0"/><path d="m272.984375 454.023438h-30.117187c-2.570313 0-4.527344-1.839844-4.527344-4.777344 0-.855469.242187-1.835938.734375-2.691406l29.625-58.398438c1.347656-2.570312 3.550781-3.550781 5.632812-3.550781 2.449219 0 6.488281 1.957031 6.488281 5.019531 0 .613281-.246093 1.222656-.609374 1.960938l-25.222657 50.316406h17.996094v-16.894532c0-3.0625 3.183594-4.285156 6.488281-4.285156 3.183594 0 6.488282 1.222656 6.488282 4.285156v16.894532h6c2.9375 0 4.40625 3.0625 4.40625 6.121094 0 2.9375-2.082032 6-4.40625 6h-6v15.792968c0 2.816406-3.304688 4.285156-6.488282 4.285156-3.304687 0-6.488281-1.46875-6.488281-4.285156zm0 0"/></g></svg>